<?xml version="1.0" encoding="UTF-8" standalone="no"?>
<!DOCTYPE svg PUBLIC "-//W3C//DTD SVG 1.1//EN"
 "http://www.w3.org/Graphics/SVG/1.1/DTD/svg11.dtd">
<!-- Generated by graphviz version 7.0.4 (20221203.1631)
 -->
<!-- Title: G Pages: 1 -->
<svg width="607pt" height="836pt"
 viewBox="0.00 0.00 606.91 836.00" xmlns="http://www.w3.org/2000/svg" xmlns:xlink="http://www.w3.org/1999/xlink">
<g id="graph0" class="graph" transform="scale(1 1) rotate(0) translate(4 832)">
<title>G</title><style>.edge>path:hover{stroke-width:8}</style>
<polygon fill="white" stroke="none" points="-4,4 -4,-832 602.91,-832 602.91,4 -4,4"/>
<!-- Element -->
<g id="node1" class="node">
<title>Element</title><style>.edge>path:hover{stroke-width:8}</style>
<ellipse fill="#a32828" stroke="black" cx="325.87" cy="-666" rx="31.4" ry="18"/>
<text text-anchor="middle" x="325.87" y="-663.5" font-family="Helvetica,sans-Serif" font-size="10.00" fill="#ffffff">Element</text>
</g>
<!-- EventManager -->
<g id="node2" class="node">
<title>EventManager</title><style>.edge>path:hover{stroke-width:8}</style>
<ellipse fill="#a16b35" stroke="black" cx="62.87" cy="-594" rx="45.83" ry="18"/>
<text text-anchor="middle" x="62.87" y="-591.5" font-family="Helvetica,sans-Serif" font-size="10.00" fill="#ffffff">EventManager</text>
</g>
<!-- Element&#45;&gt;EventManager -->
<g id="edge1" class="edge">
<title>Element&#45;&gt;EventManager</title><style>.edge>path:hover{stroke-width:8}</style>
<path fill="none" stroke="black" d="M297.73,-657.51C253.1,-645.63 165.56,-622.33 110.88,-607.78"/>
<polygon fill="#a32828" stroke="black" points="112.09,-604.48 101.53,-605.29 110.29,-611.24 112.09,-604.48"/>
</g>
<!-- J -->
<g id="node3" class="node">
<title>J</title><style>.edge>path:hover{stroke-width:8}</style>
<ellipse fill="#a1a135" stroke="black" cx="307.87" cy="-162" rx="27" ry="18"/>
<text text-anchor="middle" x="307.87" y="-159.5" font-family="Helvetica,sans-Serif" font-size="10.00" fill="#000000">J</text>
</g>
<!-- Element&#45;&gt;J -->
<g id="edge2" class="edge">
<title>Element&#45;&gt;J</title><style>.edge>path:hover{stroke-width:8}</style>
<path fill="none" stroke="black" d="M333.18,-648.32C343.97,-622.15 362.87,-569.62 362.87,-523 362.87,-523 362.87,-523 362.87,-449 362.87,-348.65 291.75,-335.35 290.87,-235"/>
</g>
<!-- main -->
<g id="node9" class="node">
<title>main</title><style>.edge>path:hover{stroke-width:8}</style>
<ellipse fill="#2e2e6b" stroke="black" cx="203.87" cy="-18" rx="27" ry="18"/>
<text text-anchor="middle" x="203.87" y="-15.5" font-family="Helvetica,sans-Serif" font-size="10.00" fill="#ffffff">main</text>
</g>
<!-- Element&#45;&gt;main -->
<g id="edge3" class="edge">
<title>Element&#45;&gt;main</title><style>.edge>path:hover{stroke-width:8}</style>
<path fill="none" stroke="black" d="M347.37,-652.49C362.88,-642.77 383.68,-628.24 398.87,-612 508.33,-495.05 538.24,-458.28 590.87,-307"/>
<path fill="none" stroke="black" d="M590.87,-305C593.86,-274.03 576.47,-262.57 590.87,-235"/>
</g>
<!-- config -->
<g id="node7" class="node">
<title>config</title><style>.edge>path:hover{stroke-width:8}</style>
<ellipse fill="#05dbdb" stroke="black" cx="155.87" cy="-522" rx="27" ry="18"/>
<text text-anchor="middle" x="155.87" y="-519.5" font-family="Helvetica,sans-Serif" font-size="10.00" fill="#000000">config</text>
</g>
<!-- EventManager&#45;&gt;config -->
<g id="edge4" class="edge">
<title>EventManager&#45;&gt;config</title><style>.edge>path:hover{stroke-width:8}</style>
<path fill="none" stroke="black" d="M92.51,-570.7C104.32,-561.8 117.82,-551.64 129.31,-542.99"/>
<polygon fill="#a16b35" stroke="black" points="90.61,-567.74 84.72,-576.55 94.82,-573.34 90.61,-567.74"/>
<polygon fill="#a16b35" stroke="black" points="131.32,-545.86 137.21,-537.05 127.11,-540.27 131.32,-545.86"/>
</g>
<!-- EventManager&#45;&gt;main -->
<g id="edge5" class="edge">
<title>EventManager&#45;&gt;main</title><style>.edge>path:hover{stroke-width:8}</style>
<path fill="none" stroke="black" d="M60.64,-575.76C59.32,-561.43 58.62,-540.6 62.87,-523"/>
</g>
<!-- console -->
<g id="node8" class="node">
<title>console</title><style>.edge>path:hover{stroke-width:8}</style>
<ellipse fill="#4675a4" stroke="black" cx="203.87" cy="-90" rx="29.37" ry="18"/>
<text text-anchor="middle" x="203.87" y="-87.5" font-family="Helvetica,sans-Serif" font-size="10.00" fill="#ffffff">console</text>
</g>
<!-- J&#45;&gt;console -->
<g id="edge6" class="edge">
<title>J&#45;&gt;console</title><style>.edge>path:hover{stroke-width:8}</style>
<path fill="none" stroke="black" d="M289.28,-148.49C273.51,-137.87 250.62,-122.46 232.51,-110.27"/>
<polygon fill="#a1a135" stroke="black" points="234.52,-107.41 224.27,-104.72 230.61,-113.21 234.52,-107.41"/>
</g>
<!-- J&#45;&gt;main -->
<g id="edge7" class="edge">
<title>J&#45;&gt;main</title><style>.edge>path:hover{stroke-width:8}</style>
<path fill="none" stroke="black" d="M314.24,-144.02C319.2,-127.54 322.97,-103.26 307.87,-91"/>
</g>
<!-- Media -->
<g id="node4" class="node">
<title>Media</title><style>.edge>path:hover{stroke-width:8}</style>
<ellipse fill="#70b42d" stroke="black" cx="269.87" cy="-378" rx="27" ry="18"/>
<text text-anchor="middle" x="269.87" y="-375.5" font-family="Helvetica,sans-Serif" font-size="10.00" fill="#000000">Media</text>
</g>
<!-- Media&#45;&gt;Element -->
<g id="edge8" class="edge">
<title>Media&#45;&gt;Element</title><style>.edge>path:hover{stroke-width:8}</style>
<path fill="none" stroke="black" d="M267.81,-396.07C265.48,-421.86 264.03,-471.88 281.67,-510.84"/>
<polygon fill="#70b42d" stroke="black" points="278.51,-512.35 286.18,-519.65 284.74,-509.16 278.51,-512.35"/>
</g>
<!-- Style -->
<g id="node6" class="node">
<title>Style</title><style>.edge>path:hover{stroke-width:8}</style>
<ellipse fill="#1eae66" stroke="black" cx="383.87" cy="-306" rx="27" ry="18"/>
<text text-anchor="middle" x="383.87" y="-303.5" font-family="Helvetica,sans-Serif" font-size="10.00" fill="#ffffff">Style</text>
</g>
<!-- Media&#45;&gt;Style -->
<g id="edge9" class="edge">
<title>Media&#45;&gt;Style</title><style>.edge>path:hover{stroke-width:8}</style>
<path fill="none" stroke="black" d="M289.21,-365.13C307.15,-354.11 334.08,-337.57 354.64,-324.95"/>
<polygon fill="#70b42d" stroke="black" points="356.46,-327.94 363.15,-319.72 352.8,-321.97 356.46,-327.94"/>
</g>
<!-- Media&#45;&gt;main -->
<g id="edge10" class="edge">
<title>Media&#45;&gt;main</title><style>.edge>path:hover{stroke-width:8}</style>
<path fill="none" stroke="black" d="M266.71,-359.81C260.17,-320.49 247.7,-221.42 271.87,-144 280.36,-116.82 329.98,-108.95 307.87,-91"/>
<path fill="none" stroke="black" d="M307.87,-89C283.5,-69.84 254.05,-50.33 232.72,-36.79"/>
<polygon fill="#70b42d" stroke="black" points="234.86,-34 224.53,-31.64 231.13,-39.93 234.86,-34"/>
</g>
<!-- Selector -->
<g id="node5" class="node">
<title>Selector</title><style>.edge>path:hover{stroke-width:8}</style>
<ellipse fill="#2fbc2f" stroke="black" cx="383.87" cy="-234" rx="31.4" ry="18"/>
<text text-anchor="middle" x="383.87" y="-231.5" font-family="Helvetica,sans-Serif" font-size="10.00" fill="#000000">Selector</text>
</g>
<!-- Selector&#45;&gt;J -->
<g id="edge11" class="edge">
<title>Selector&#45;&gt;J</title><style>.edge>path:hover{stroke-width:8}</style>
<path fill="none" stroke="black" d="M367.76,-218.15C357.17,-208.4 343.14,-195.48 331.32,-184.6"/>
<polygon fill="#2fbc2f" stroke="black" points="334.03,-182.33 324.3,-178.13 329.29,-187.48 334.03,-182.33"/>
</g>
<!-- Selector&#45;&gt;main -->
<g id="edge13" class="edge">
<title>Selector&#45;&gt;main</title><style>.edge>path:hover{stroke-width:8}</style>
<path fill="none" stroke="black" d="M414.66,-229.17C473.91,-220.96 597.47,-199.4 590.87,-163"/>
<path fill="none" stroke="black" d="M590.87,-161C567.76,-33.51 408.46,-172.67 307.87,-91"/>
</g>
<!-- Style&#45;&gt;Element -->
<g id="edge14" class="edge">
<title>Style&#45;&gt;Element</title><style>.edge>path:hover{stroke-width:8}</style>
<path fill="none" stroke="black" d="M387.23,-323.97C392.19,-350.52 400.87,-403.56 400.87,-449 400.87,-523 400.87,-523 400.87,-523 400.87,-563.97 397.05,-576.34 376.87,-612 370.39,-623.46 360.87,-634.28 351.79,-643.12"/>
<polygon fill="#1eae66" stroke="black" points="349.42,-640.55 344.46,-649.92 354.17,-645.69 349.42,-640.55"/>
</g>
<!-- Style&#45;&gt;J -->
<g id="edge15" class="edge">
<title>Style&#45;&gt;J</title><style>.edge>path:hover{stroke-width:8}</style>
<path fill="none" stroke="black" d="M362.82,-294.23C335.43,-279.5 291.03,-252.88 290.87,-235"/>
</g>
<!-- Style&#45;&gt;Selector -->
<g id="edge16" class="edge">
<title>Style&#45;&gt;Selector</title><style>.edge>path:hover{stroke-width:8}</style>
<path fill="none" stroke="black" d="M383.87,-276.24C383.87,-272.01 383.87,-267.66 383.87,-263.44"/>
<polygon fill="#1eae66" stroke="black" points="380.37,-276.18 383.87,-286.18 387.37,-276.18 380.37,-276.18"/>
<polygon fill="#1eae66" stroke="black" points="387.37,-263.62 383.87,-253.62 380.37,-263.62 387.37,-263.62"/>
</g>
<!-- Style&#45;&gt;main -->
<g id="edge17" class="edge">
<title>Style&#45;&gt;main</title><style>.edge>path:hover{stroke-width:8}</style>
<path fill="none" stroke="black" d="M590.87,-233C605.28,-205.43 596.42,-193.61 590.87,-163"/>
<path fill="none" stroke="black" d="M409.82,-300.7C461.46,-291.48 573.66,-267.95 590.87,-235"/>
</g>
<!-- config&#45;&gt;Element -->
<g id="edge18" class="edge">
<title>config&#45;&gt;Element</title><style>.edge>path:hover{stroke-width:8}</style>
<path fill="none" stroke="black" d="M172.15,-536.6C201.68,-561.26 264.27,-613.54 299.8,-643.22"/>
<polygon fill="#05dbdb" stroke="black" points="297.56,-645.91 307.48,-649.63 302.05,-640.54 297.56,-645.91"/>
</g>
<!-- config&#45;&gt;J -->
<g id="edge20" class="edge">
<title>config&#45;&gt;J</title><style>.edge>path:hover{stroke-width:8}</style>
<path fill="none" stroke="black" d="M100.87,-449C95.66,-386.54 230.87,-241.36 285.48,-185.48"/>
<polygon fill="#05dbdb" stroke="black" points="287.65,-188.27 292.16,-178.68 282.66,-183.36 287.65,-188.27"/>
</g>
<!-- config&#45;&gt;Media -->
<g id="edge21" class="edge">
<title>config&#45;&gt;Media</title><style>.edge>path:hover{stroke-width:8}</style>
<path fill="none" stroke="black" d="M166.86,-505.27C177.41,-490.59 194.19,-468.4 210.87,-451"/>
<path fill="none" stroke="black" d="M210.87,-449C224.82,-434.46 239.42,-417.16 250.61,-403.39"/>
<polygon fill="#05dbdb" stroke="black" points="253.26,-405.67 256.81,-395.69 247.81,-401.28 253.26,-405.67"/>
</g>
<!-- config&#45;&gt;Style -->
<g id="edge22" class="edge">
<title>config&#45;&gt;Style</title><style>.edge>path:hover{stroke-width:8}</style>
<path fill="none" stroke="black" d="M210.87,-449C244.34,-414.1 268.28,-426.4 305.87,-396 329.24,-377.1 351.37,-350.74 366.05,-331.62"/>
<polygon fill="#05dbdb" stroke="black" points="368.7,-333.92 371.91,-323.82 363.1,-329.71 368.7,-333.92"/>
</g>
<!-- config&#45;&gt;console -->
<g id="edge23" class="edge">
<title>config&#45;&gt;console</title><style>.edge>path:hover{stroke-width:8}</style>
<path fill="none" stroke="black" d="M100.87,-305C105.43,-269.89 143.43,-270.11 138.87,-235"/>
<path fill="none" stroke="black" d="M138.87,-233C133.1,-188.5 161.96,-142.2 183.08,-115.01"/>
<polygon fill="#05dbdb" stroke="black" points="185.66,-117.39 189.21,-107.41 180.21,-113 185.66,-117.39"/>
</g>
<!-- config&#45;&gt;main -->
<g id="edge24" class="edge">
<title>config&#45;&gt;main</title><style>.edge>path:hover{stroke-width:8}</style>
<path fill="none" stroke="black" d="M139.26,-507.55C125.17,-494.78 106.38,-474.16 100.87,-451"/>
<path fill="none" stroke="black" d="M100.87,-305C104.88,-274.15 99.51,-266.08 100.87,-235"/>
<path fill="none" stroke="black" d="M100.87,-449C86.27,-387.6 92.76,-369.59 100.87,-307"/>
</g>
<!-- util -->
<g id="node12" class="node">
<title>util</title><style>.edge>path:hover{stroke-width:8}</style>
<ellipse fill="#e50575" stroke="black" cx="155.87" cy="-450" rx="27" ry="18"/>
<text text-anchor="middle" x="155.87" y="-447.5" font-family="Helvetica,sans-Serif" font-size="10.00" fill="#ffffff">util</text>
</g>
<!-- config&#45;&gt;util -->
<g id="edge25" class="edge">
<title>config&#45;&gt;util</title><style>.edge>path:hover{stroke-width:8}</style>
<path fill="none" stroke="black" d="M155.87,-492.24C155.87,-488.01 155.87,-483.66 155.87,-479.44"/>
<polygon fill="#05dbdb" stroke="black" points="152.37,-492.18 155.87,-502.18 159.37,-492.18 152.37,-492.18"/>
<polygon fill="#05dbdb" stroke="black" points="159.37,-479.62 155.87,-469.62 152.37,-479.62 159.37,-479.62"/>
</g>
<!-- console&#45;&gt;main -->
<g id="edge26" class="edge">
<title>console&#45;&gt;main</title><style>.edge>path:hover{stroke-width:8}</style>
<path fill="none" stroke="black" d="M203.87,-71.7C203.87,-64.41 203.87,-55.73 203.87,-47.54"/>
<polygon fill="#4675a4" stroke="black" points="207.37,-47.62 203.87,-37.62 200.37,-47.62 207.37,-47.62"/>
</g>
<!-- own_types -->
<g id="node10" class="node">
<title>own_types</title><style>.edge>path:hover{stroke-width:8}</style>
<ellipse fill="#7f06f9" stroke="black" cx="281.87" cy="-738" rx="37.17" ry="18"/>
<text text-anchor="middle" x="281.87" y="-735.5" font-family="Helvetica,sans-Serif" font-size="10.00" fill="#ffffff">own_types</text>
</g>
<!-- own_types&#45;&gt;Element -->
<g id="edge27" class="edge">
<title>own_types&#45;&gt;Element</title><style>.edge>path:hover{stroke-width:8}</style>
<path fill="none" stroke="black" d="M292.3,-720.41C297.45,-712.22 303.79,-702.14 309.56,-692.95"/>
<polygon fill="#7f06f9" stroke="black" points="312.36,-695.08 314.72,-684.75 306.43,-691.36 312.36,-695.08"/>
</g>
<!-- own_types&#45;&gt;EventManager -->
<g id="edge28" class="edge">
<title>own_types&#45;&gt;EventManager</title><style>.edge>path:hover{stroke-width:8}</style>
<path fill="none" stroke="black" d="M174.87,-665C157.82,-640.85 129.54,-623.28 105.66,-611.77"/>
<polygon fill="#7f06f9" stroke="black" points="107.33,-608.69 96.78,-607.7 104.41,-615.05 107.33,-608.69"/>
<path fill="none" stroke="black" d="M253.84,-725.82C229.31,-714.58 194.6,-694.92 174.87,-667"/>
</g>
<!-- own_types&#45;&gt;Media -->
<g id="edge29" class="edge">
<title>own_types&#45;&gt;Media</title><style>.edge>path:hover{stroke-width:8}</style>
<path fill="none" stroke="black" d="M174.87,-665C166.59,-652.54 220.08,-554.17 224.87,-540 240.46,-493.97 254.91,-439.28 263.04,-406.95"/>
<polygon fill="#7f06f9" stroke="black" points="266.35,-408.12 265.37,-397.57 259.56,-406.43 266.35,-408.12"/>
</g>
<!-- own_types&#45;&gt;Selector -->
<g id="edge30" class="edge">
<title>own_types&#45;&gt;Selector</title><style>.edge>path:hover{stroke-width:8}</style>
<path fill="none" stroke="black" d="M514.87,-665C529.45,-650.09 552.87,-535.44 552.87,-523 552.87,-523 552.87,-523 552.87,-377 552.87,-308.95 471.56,-266.98 421.74,-247.66"/>
<polygon fill="#7f06f9" stroke="black" points="423.04,-244.4 412.45,-244.19 420.59,-250.96 423.04,-244.4"/>
</g>
<!-- own_types&#45;&gt;Style -->
<g id="edge31" class="edge">
<title>own_types&#45;&gt;Style</title><style>.edge>path:hover{stroke-width:8}</style>
<path fill="none" stroke="black" d="M317,-731.65C376.08,-721.85 491.24,-699.04 514.87,-667"/>
<path fill="none" stroke="black" d="M514.87,-665C555.97,-609.29 442.41,-405.54 399.52,-332.92"/>
<polygon fill="#7f06f9" stroke="black" points="402.63,-331.3 394.51,-324.49 396.61,-334.88 402.63,-331.3"/>
</g>
<!-- own_types&#45;&gt;config -->
<g id="edge32" class="edge">
<title>own_types&#45;&gt;config</title><style>.edge>path:hover{stroke-width:8}</style>
<path fill="none" stroke="black" d="M174.87,-665C151.18,-631.46 150.15,-582.13 152.4,-551.32"/>
<polygon fill="#7f06f9" stroke="black" points="155.86,-551.89 153.28,-541.61 148.89,-551.25 155.86,-551.89"/>
</g>
<!-- own_types&#45;&gt;main -->
<g id="edge33" class="edge">
<title>own_types&#45;&gt;main</title><style>.edge>path:hover{stroke-width:8}</style>
<path fill="none" stroke="black" d="M62.87,-521C87.35,-419.82 68.19,-390.41 86.87,-288 91.25,-264.03 99.81,-259.34 100.87,-235"/>
<path fill="none" stroke="black" d="M100.87,-233C100.35,-157.55 153.2,-80.62 183.39,-42.88"/>
<polygon fill="#7f06f9" stroke="black" points="185.95,-45.28 189.58,-35.32 180.53,-40.85 185.95,-45.28"/>
<path fill="none" stroke="black" d="M254.44,-725.44C186.44,-696.66 15.05,-623.31 7.87,-612 -0.7,-598.49 1.61,-590.72 7.87,-576 21.16,-544.76 52.2,-555.22 62.87,-523"/>
</g>
<!-- own_types&#45;&gt;util -->
<g id="edge34" class="edge">
<title>own_types&#45;&gt;util</title><style>.edge>path:hover{stroke-width:8}</style>
<path fill="none" stroke="black" d="M174.87,-665C157.64,-639.1 163.89,-624.11 174.87,-595"/>
</g>
<!-- pygame -->
<g id="node11" class="node">
<title>pygame</title><style>.edge>path:hover{stroke-width:8}</style>
<ellipse fill="#f906f9" stroke="black" cx="281.87" cy="-810" rx="30.04" ry="18"/>
<text text-anchor="middle" x="281.87" y="-807.5" font-family="Helvetica,sans-Serif" font-size="10.00" fill="#ffffff">pygame</text>
</g>
<!-- pygame&#45;&gt;Element -->
<g id="edge35" class="edge">
<title>pygame&#45;&gt;Element</title><style>.edge>path:hover{stroke-width:8}</style>
<path fill="none" stroke="black" d="M590.87,-737C596.99,-691.75 445.03,-675.01 368.55,-669.46"/>
<polygon fill="#f906f9" stroke="black" points="369.13,-665.99 358.91,-668.79 368.64,-672.97 369.13,-665.99"/>
<path fill="none" stroke="black" d="M312.04,-808.45C388.3,-806.23 583.29,-795.08 590.87,-739"/>
</g>
<!-- pygame&#45;&gt;EventManager -->
<g id="edge36" class="edge">
<title>pygame&#45;&gt;EventManager</title><style>.edge>path:hover{stroke-width:8}</style>
<path fill="none" stroke="black" d="M60.87,-665C50.92,-653.83 51,-637.22 53.77,-622.98"/>
<polygon fill="#f906f9" stroke="black" points="57.06,-624.23 56.06,-613.69 50.26,-622.56 57.06,-624.23"/>
</g>
<!-- pygame&#45;&gt;Media -->
<g id="edge37" class="edge">
<title>pygame&#45;&gt;Media</title><style>.edge>path:hover{stroke-width:8}</style>
<path fill="none" stroke="black" d="M590.87,-737C595.04,-706.17 598.35,-697.2 590.87,-667"/>
<path fill="none" stroke="black" d="M590.87,-665C554.78,-519.3 377.29,-426.01 302.84,-392.71"/>
<polygon fill="#f906f9" stroke="black" points="304.58,-389.65 294.02,-388.84 301.77,-396.06 304.58,-389.65"/>
</g>
<!-- pygame&#45;&gt;Style -->
<g id="edge38" class="edge">
<title>pygame&#45;&gt;Style</title><style>.edge>path:hover{stroke-width:8}</style>
<path fill="none" stroke="black" d="M590.87,-521C567.39,-426.18 465.77,-354.74 414.18,-323.83"/>
<polygon fill="#f906f9" stroke="black" points="415.97,-320.82 405.57,-318.78 412.43,-326.86 415.97,-320.82"/>
<path fill="none" stroke="black" d="M590.87,-665C584.4,-602.22 598.38,-585.66 590.87,-523"/>
</g>
<!-- pygame&#45;&gt;config -->
<g id="edge39" class="edge">
<title>pygame&#45;&gt;config</title><style>.edge>path:hover{stroke-width:8}</style>
<path fill="none" stroke="black" d="M254.73,-801.67C223.05,-791.93 170.69,-771.99 136.87,-739"/>
<path fill="none" stroke="black" d="M136.87,-737C104,-704.93 91.43,-701.28 60.87,-667"/>
<path fill="none" stroke="black" d="M60.87,-665C30.24,-630.63 -18.63,-613.64 7.87,-576 20.96,-557.42 79.67,-540.58 119.09,-531.08"/>
<polygon fill="#f906f9" stroke="black" points="119.73,-534.53 128.67,-528.84 118.13,-527.71 119.73,-534.53"/>
</g>
<!-- pygame&#45;&gt;main -->
<g id="edge40" class="edge">
<title>pygame&#45;&gt;main</title><style>.edge>path:hover{stroke-width:8}</style>
<path fill="none" stroke="black" d="M590.87,-521C579.56,-426.56 581.76,-401.67 590.87,-307"/>
</g>
<!-- pygame&#45;&gt;own_types -->
<g id="edge41" class="edge">
<title>pygame&#45;&gt;own_types</title><style>.edge>path:hover{stroke-width:8}</style>
<path fill="none" stroke="black" d="M281.87,-791.7C281.87,-784.41 281.87,-775.73 281.87,-767.54"/>
<polygon fill="#f906f9" stroke="black" points="285.37,-767.62 281.87,-757.62 278.37,-767.62 285.37,-767.62"/>
</g>
<!-- pygame&#45;&gt;util -->
<g id="edge42" class="edge">
<title>pygame&#45;&gt;util</title><style>.edge>path:hover{stroke-width:8}</style>
<path fill="none" stroke="black" d="M136.87,-737C90.11,-691.38 151.81,-656.12 174.87,-595"/>
<path fill="none" stroke="black" d="M174.87,-593C189.34,-555.42 203.71,-542.49 191.87,-504 188.69,-493.65 182.72,-483.51 176.55,-474.91"/>
<polygon fill="#f906f9" stroke="black" points="179.43,-472.91 170.55,-467.13 173.88,-477.19 179.43,-472.91"/>
</g>
<!-- util&#45;&gt;Element -->
<g id="edge43" class="edge">
<title>util&#45;&gt;Element</title><style>.edge>path:hover{stroke-width:8}</style>
<path fill="none" stroke="black" d="M286.87,-523C304.45,-566.63 316.91,-620.9 322.53,-647.98"/>
<path fill="none" stroke="black" d="M178.02,-460.95C207.69,-474.48 258.89,-498.68 278.83,-513.12"/>
<polygon fill="#e50575" stroke="black" points="276.2,-515.45 285.79,-519.94 281.09,-510.44 276.2,-515.45"/>
</g>
<!-- util&#45;&gt;EventManager -->
<g id="edge44" class="edge">
<title>util&#45;&gt;EventManager</title><style>.edge>path:hover{stroke-width:8}</style>
<path fill="none" stroke="black" d="M145.05,-466.69C137.84,-477.2 128.2,-491.37 119.87,-504 106.11,-524.87 90.85,-548.74 79.58,-566.5"/>
<polygon fill="#e50575" stroke="black" points="76.66,-564.58 74.27,-574.9 82.57,-568.32 76.66,-564.58"/>
</g>
<!-- util&#45;&gt;J -->
<g id="edge45" class="edge">
<title>util&#45;&gt;J</title><style>.edge>path:hover{stroke-width:8}</style>
<path fill="none" stroke="black" d="M290.87,-233C290.75,-218.73 294.11,-203.28 297.88,-190.53"/>
<polygon fill="#e50575" stroke="black" points="301.17,-191.73 300.9,-181.14 294.51,-189.59 301.17,-191.73"/>
<path fill="none" stroke="black" d="M214.87,-305C214.87,-259.08 291.28,-280.92 290.87,-235"/>
</g>
<!-- util&#45;&gt;Media -->
<g id="edge46" class="edge">
<title>util&#45;&gt;Media</title><style>.edge>path:hover{stroke-width:8}</style>
<path fill="none" stroke="black" d="M175.21,-437.13C193.15,-426.11 220.08,-409.57 240.64,-396.95"/>
<polygon fill="#e50575" stroke="black" points="242.46,-399.94 249.15,-391.72 238.8,-393.97 242.46,-399.94"/>
</g>
<!-- util&#45;&gt;Selector -->
<g id="edge47" class="edge">
<title>util&#45;&gt;Selector</title><style>.edge>path:hover{stroke-width:8}</style>
<path fill="none" stroke="black" d="M214.87,-377C260.59,-329.6 321.08,-281.85 355.91,-255.58"/>
<polygon fill="#e50575" stroke="black" points="357.91,-258.46 363.81,-249.67 353.71,-252.86 357.91,-258.46"/>
</g>
<!-- util&#45;&gt;Style -->
<g id="edge48" class="edge">
<title>util&#45;&gt;Style</title><style>.edge>path:hover{stroke-width:8}</style>
<path fill="none" stroke="black" d="M214.87,-377C222.74,-368.84 224.13,-365.77 233.87,-360 269.96,-338.63 316.01,-323.96 347.51,-315.57"/>
<polygon fill="#e50575" stroke="black" points="348.14,-319.02 356.95,-313.13 346.39,-312.24 348.14,-319.02"/>
</g>
<!-- util&#45;&gt;console -->
<g id="edge50" class="edge">
<title>util&#45;&gt;console</title><style>.edge>path:hover{stroke-width:8}</style>
<path fill="none" stroke="black" d="M214.87,-377C236.52,-354.65 214.87,-338.11 214.87,-307"/>
<path fill="none" stroke="black" d="M167.95,-433.45C179.49,-418.91 197.63,-396.81 214.87,-379"/>
<path fill="none" stroke="black" d="M214.87,-305C214.87,-259.08 144.78,-280.54 138.87,-235"/>
</g>
<!-- util&#45;&gt;main -->
<g id="edge51" class="edge">
<title>util&#45;&gt;main</title><style>.edge>path:hover{stroke-width:8}</style>
<path fill="none" stroke="black" d="M151.61,-432.07C144.22,-402.71 128.49,-340.49 114.87,-288 108.76,-264.42 100.87,-259.36 100.87,-235"/>
</g>
</g>
</svg>
